<svg width="106" height="66" viewBox="0 0 106 66" fill="none" xmlns="http://www.w3.org/2000/svg">
<rect width="106" height="66" fill="url(#paint0_linear_2069_119)"/>
<path d="M29.9811 18.2037C31.2023 18.2212 32.3014 18.4829 33.2783 18.9888L32.8073 21.2131L32.5979 21.2916C31.778 20.6984 30.8621 20.4019 29.8503 20.4019C27.7743 20.4019 26.7363 21.7713 26.7363 24.5103C26.7363 27.4586 27.8004 28.9414 29.9288 28.9589C30.9755 28.9589 31.9437 28.671 32.8334 28.0953L33.069 28.2262L32.8596 30.4766C31.8652 30.9302 30.8185 31.1657 29.7194 31.1832C27.8353 31.1832 26.3961 30.6336 25.4017 29.5346C24.4247 28.4355 23.9363 26.848 23.9363 24.772C23.9363 22.6959 24.4596 21.0822 25.5063 19.9308C26.5531 18.7794 28.0447 18.2037 29.9811 18.2037ZM38.9992 23.8822C38.5108 23.8822 37.9438 24.1439 37.2983 24.6673L37.246 26.9963L37.3768 31H34.7861L34.917 27.2056L34.8123 17.4449L37.403 17.2355L37.3245 23.1757H37.4291C38.1444 22.5128 38.9207 22.0417 39.7581 21.7626C40.7525 21.7626 41.5114 21.9894 42.0347 22.443C42.5581 22.8966 42.8111 23.5421 42.7936 24.3794L42.7413 26.9963L42.846 31H40.2291L40.3861 25.3215C40.421 24.362 39.9587 23.8822 38.9992 23.8822ZM48.4216 21.7103C49.5905 21.7103 50.4628 21.9371 51.0385 22.3907C51.6142 22.8442 51.902 23.4723 51.902 24.2748C51.902 24.5016 51.8584 25.243 51.7712 26.4991C51.7712 26.4991 51.745 27.2143 51.6927 28.6449C51.6927 28.8717 51.7188 29.0287 51.7712 29.1159C51.8235 29.1857 51.9282 29.2206 52.0852 29.2206C52.2422 29.2206 52.4254 29.1944 52.6347 29.1421L52.8441 29.2991L52.5824 30.6598C52.1637 30.9215 51.6927 31.0872 51.1693 31.157C50.3319 31.0872 49.826 30.6075 49.6515 29.7178H49.5207C48.8578 30.4156 48.1861 30.904 47.5057 31.1832C46.5637 31.1657 45.8223 30.9128 45.2814 30.4243C44.7406 29.9358 44.4702 29.2816 44.4702 28.4617C44.4702 27.1882 45.1419 26.4206 46.4852 26.1589L49.4945 25.6093V24.7981C49.4945 23.9433 49.0933 23.5159 48.2908 23.5159C47.4883 23.5159 46.5462 23.891 45.4646 24.6411L45.2553 24.5364L44.9674 22.8093C46.1188 22.0766 47.2702 21.7103 48.4216 21.7103ZM47.4011 27.3626C46.9998 27.4498 46.7992 27.6941 46.7992 28.0953C46.7992 28.8804 47.1394 29.2729 47.8198 29.2729C48.3257 29.2729 48.8665 28.9676 49.4422 28.357L49.4945 26.8916L47.4011 27.3626ZM60.0784 25.3215C60.0784 24.362 59.6684 23.8822 58.8484 23.8822C58.2553 23.8822 57.6273 24.1614 56.9643 24.7196V26.9963L57.0952 31H54.4784L54.6092 27.2318L54.5045 22.0505L56.9905 21.8411V23.1757H57.1213C57.8715 22.5128 58.6565 22.0417 59.4765 21.7626C60.4709 21.7626 61.221 21.9894 61.7269 22.443C62.2503 22.8966 62.5033 23.5421 62.4858 24.3794L62.4335 26.9963L62.5382 31H59.9213L60.0784 25.3215ZM73.5795 23.1234C73.2306 23.2106 72.7246 23.3065 72.0617 23.4112L72.0094 23.4897C72.2013 23.8735 72.2972 24.3097 72.2972 24.7981C72.2972 25.7751 71.9396 26.5601 71.2243 27.1533C70.5265 27.729 69.567 28.0168 68.3458 28.0168C67.9795 28.0168 67.6044 27.9819 67.2206 27.9121C67.0287 28.104 66.9327 28.2785 66.9327 28.4355C66.9327 28.6623 67.081 28.828 67.3776 28.9327C67.6916 29.0199 68.215 29.1072 68.9477 29.1944C69.6804 29.2816 70.2997 29.395 70.8056 29.5346C71.3116 29.6567 71.7477 29.8835 72.114 30.215C72.4978 30.5464 72.6897 31.0087 72.6897 31.6019C72.6897 32.2125 72.4978 32.762 72.114 33.2505C71.3116 34.2972 70.0119 34.8206 68.215 34.8206C67.0287 34.8206 66.1128 34.5763 65.4673 34.0879C64.8218 33.5994 64.4991 32.9626 64.4991 32.1776C64.9003 31.6193 65.4499 31.1308 66.1477 30.7121V30.6075C65.2056 30.2586 64.7346 29.6654 64.7346 28.828C65.0835 28.4093 65.5284 28.0081 66.0692 27.6243V27.5458C65.1097 27.0224 64.6299 26.2199 64.6299 25.1383C64.6299 24.0393 64.9788 23.2019 65.6767 22.6262C66.3919 22.033 67.3602 21.7364 68.5813 21.7364C69.2966 21.7364 69.9334 21.8586 70.4916 22.1028C71.4337 21.9283 72.3932 21.6667 73.3701 21.3178L73.5795 21.5009V23.1234ZM70.0468 24.8505C70.0468 23.8561 69.5147 23.3589 68.4505 23.3589C67.4038 23.3589 66.8804 23.8648 66.8804 24.8766C66.8804 25.9408 67.395 26.4642 68.4243 26.4467C69.5059 26.4642 70.0468 25.9321 70.0468 24.8505ZM70.5178 32.0991C70.5178 31.7327 70.3259 31.4798 69.9421 31.3402C69.5583 31.2181 69.0873 31.1221 68.529 31.0523C67.9882 31 67.6654 30.9564 67.5608 30.9215C66.9502 31.3402 66.6449 31.7327 66.6449 32.0991C66.6449 32.4829 66.8019 32.7794 67.1159 32.9888C67.4299 33.1981 67.8835 33.3028 68.4767 33.3028C69.0873 33.3028 69.5757 33.1894 69.9421 32.9626C70.3259 32.7533 70.5178 32.4654 70.5178 32.0991ZM76.3816 26.7869C76.4863 28.4442 77.2888 29.2729 78.7891 29.2729C79.6439 29.2729 80.5249 29.0287 81.4321 28.5402L81.6414 28.6972L81.3012 30.6075C80.3941 30.9913 79.4782 31.1919 78.5536 31.2093C77.1056 31.2093 75.9804 30.7907 75.1779 29.9533C74.3754 29.1159 73.9741 27.9645 73.9741 26.4991C73.9741 25.0162 74.3754 23.8561 75.1779 23.0187C75.9978 22.1639 77.0358 21.7364 78.2919 21.7364C79.548 21.7364 80.4813 22.0592 81.0919 22.7047C81.7199 23.3327 82.034 24.205 82.034 25.3215C82.034 25.6704 82.0078 26.028 81.9554 26.3944L81.5629 26.7607L76.3816 26.7869ZM78.3704 23.4374C77.8645 23.4374 77.4371 23.6031 77.0882 23.9346C76.7567 24.266 76.5386 24.7371 76.434 25.3477L79.7311 25.243L79.7835 25.0336C79.766 23.9695 79.295 23.4374 78.3704 23.4374Z" fill="white"/>
<path d="M24.5206 38.2037C26.3698 38.2037 27.7742 38.7445 28.7337 39.8262C29.6932 40.9078 30.1729 42.4866 30.1729 44.5626C30.1729 46.6386 29.6496 48.2698 28.6028 49.4561C27.5735 50.6249 26.1343 51.2093 24.2851 51.2093C22.4533 51.2093 21.0577 50.6598 20.0982 49.5607C19.1387 48.4442 18.6589 46.848 18.6589 44.772C18.6589 42.6959 19.1735 41.0822 20.2028 39.9308C21.2496 38.7794 22.6888 38.2037 24.5206 38.2037ZM24.4159 40.3495C23.3692 40.3495 22.6103 40.681 22.1393 41.3439C21.6683 41.9894 21.4327 43.0972 21.4327 44.6673C21.4327 46.2374 21.6595 47.3801 22.1131 48.0953C22.5841 48.7931 23.3517 49.1421 24.4159 49.1421C25.4801 49.1421 26.239 48.8193 26.6926 48.1738C27.1636 47.5109 27.3991 46.3944 27.3991 44.8243C27.3991 43.2368 27.1636 42.0941 26.6926 41.3963C26.239 40.6984 25.4801 40.3495 24.4159 40.3495ZM37.4651 45.3215C37.4651 44.362 37.0551 43.8822 36.2352 43.8822C35.642 43.8822 35.014 44.1614 34.3511 44.7196V46.9963L34.4819 51H31.8651L31.9959 47.2318L31.8912 42.0505L34.3772 41.8411V43.1757H34.5081C35.2582 42.5128 36.0433 42.0417 36.8632 41.7626C37.8576 41.7626 38.6077 41.9894 39.1137 42.443C39.637 42.8966 39.89 43.5421 39.8725 44.3794L39.8202 46.9963L39.9249 51H37.3081L37.4651 45.3215ZM51.877 41.3178C50.935 40.6374 50.0452 40.2972 49.2079 40.2972C48.6845 40.2972 48.2658 40.4368 47.9518 40.7159C47.6378 40.995 47.4808 41.3265 47.4808 41.7103C47.4808 42.0766 47.6465 42.3907 47.9779 42.6523C48.3269 42.914 48.8677 43.2193 49.6004 43.5682C50.3331 43.8997 50.9262 44.205 51.3798 44.4841C52.4614 45.147 53.0022 46.0804 53.0022 47.2841C53.0022 47.9994 52.8016 48.6536 52.4004 49.2467C52.0166 49.8399 51.467 50.3109 50.7518 50.6598C50.0365 51.0087 49.1381 51.1832 48.0565 51.1832C46.9748 51.1832 45.7973 50.9128 44.5237 50.372L44.9163 47.9121L45.2041 47.729C45.7275 48.1826 46.2945 48.5315 46.9051 48.7757C47.5331 49.0199 48.1088 49.1421 48.6322 49.1421C49.173 49.1421 49.6004 49.0025 49.9144 48.7234C50.2284 48.4442 50.3854 48.104 50.3854 47.7028C50.3854 47.3016 50.211 46.9701 49.8621 46.7084C49.5132 46.4467 48.9636 46.1502 48.2135 45.8187C47.4808 45.4698 46.8963 45.1558 46.4602 44.8766C45.396 44.2312 44.8639 43.3065 44.8639 42.1028C44.8639 41.3701 45.0558 40.7159 45.4396 40.1402C45.8409 39.547 46.3904 39.076 47.0882 38.7271C47.8035 38.3782 48.6496 38.2125 49.6265 38.2299C50.6035 38.2474 51.6241 38.4654 52.6882 38.8841L52.2695 41.1607L51.877 41.3178ZM58.602 41.7103C59.5092 41.7103 60.3117 41.876 61.0095 42.2075L60.5908 44.2748L60.3553 44.3794C59.6924 44.0131 59.0818 43.8299 58.5235 43.8299C57.9653 43.8299 57.5204 44.048 57.189 44.4841C56.8575 44.9028 56.6918 45.5396 56.6918 46.3944C56.6918 47.2492 56.8662 47.9209 57.2151 48.4093C57.5815 48.8978 58.07 49.1421 58.6805 49.1421C59.3086 49.1421 59.9802 48.9763 60.6955 48.6449L60.8787 48.8019L60.6432 50.8168C59.8581 51.0611 59.0469 51.1919 58.2095 51.2093C56.9534 51.2093 55.9765 50.7994 55.2787 49.9794C54.5809 49.1595 54.232 48.0081 54.232 46.5252C54.232 45.0249 54.6158 43.8474 55.3834 42.9925C56.151 42.1377 57.2239 41.7103 58.602 41.7103ZM67.3777 41.8673C67.4998 41.8847 67.6655 41.9022 67.8748 41.9196V44.3009L67.6132 44.4056C67.3864 44.3184 67.1421 44.2748 66.8805 44.2748C66.1303 44.2748 65.4412 44.7545 64.8132 45.714V46.9963L64.9702 51H62.3534L62.4842 47.2318L62.3795 42.0505L64.8655 41.8411L64.8393 43.6467H64.9963C65.6244 42.4779 66.4181 41.8847 67.3777 41.8673ZM72.8505 41.7103C74.2461 41.7103 75.2929 42.1028 75.9907 42.8879C76.6885 43.6729 77.0374 44.833 77.0374 46.3682C77.0374 47.9034 76.6536 49.0984 75.886 49.9533C75.1358 50.7907 74.0717 51.2093 72.6935 51.2093C71.3327 51.2093 70.2947 50.8168 69.5795 50.0318C68.8816 49.2293 68.5327 48.0604 68.5327 46.5252C68.5327 44.99 68.9078 43.8037 69.658 42.9664C70.4081 42.129 71.4723 41.7103 72.8505 41.7103ZM72.772 43.4636C72.1439 43.4636 71.6904 43.6816 71.4112 44.1178C71.1321 44.5364 70.9925 45.2779 70.9925 46.3421C70.9925 47.4062 71.1321 48.1913 71.4112 48.6972C71.6904 49.1857 72.1527 49.4299 72.7982 49.4299C73.4436 49.4299 73.9059 49.2293 74.1851 48.828C74.4642 48.4268 74.6038 47.6941 74.6038 46.6299C74.6038 45.5657 74.4555 44.772 74.1589 44.2486C73.8623 43.7252 73.4 43.4636 72.772 43.4636ZM81.4823 51H78.8916L79.0225 47.2056L78.9178 37.4449L81.5084 37.2355L81.3514 46.9963L81.4823 51ZM86.6229 51H84.0322L84.1631 47.2056L84.0584 37.4449L86.6491 37.2355L86.4921 46.9963L86.6229 51Z" fill="black"/>
<defs>
<linearGradient id="paint0_linear_2069_119" x1="53" y1="66" x2="53" y2="0" gradientUnits="userSpaceOnUse">
<stop stop-color="#F1F1F1"/>
<stop offset="0.730769"/>
</linearGradient>
</defs>
</svg>
