<svg width="77" height="45" viewBox="0 0 77 45" fill="none" xmlns="http://www.w3.org/2000/svg">
<path d="M22.8301 18.3296C22.8301 21.395 22.3962 23.8936 21.5283 25.8252C20.6745 27.7428 19.4707 29.1566 17.917 30.0664C16.3773 30.9622 14.5856 31.4102 12.542 31.4102C10.4844 31.4102 8.67171 30.9622 7.104 30.0664C5.55029 29.1566 4.33952 27.7428 3.47168 25.8252C2.60384 23.8936 2.16992 21.395 2.16992 18.3296V13.0176C2.16992 9.95215 2.59684 7.46761 3.45068 5.56396C4.31852 3.64632 5.5293 2.23958 7.08301 1.34375C8.63672 0.447917 10.4424 0 12.5 0C14.5436 0 16.3423 0.447917 17.896 1.34375C19.4497 2.23958 20.6605 3.64632 21.5283 5.56396C22.3962 7.46761 22.8301 9.95215 22.8301 13.0176V18.3296ZM16.7202 12.1567C16.7202 10.3651 16.5522 8.94434 16.2163 7.89453C15.8804 6.83073 15.3975 6.07487 14.7676 5.62695C14.1377 5.16504 13.3818 4.93408 12.5 4.93408C11.6042 4.93408 10.8413 5.16504 10.2114 5.62695C9.58154 6.07487 9.09863 6.83073 8.7627 7.89453C8.44076 8.94434 8.27979 10.3651 8.27979 12.1567V19.1484C8.27979 20.9681 8.44775 22.4168 8.78369 23.4946C9.11963 24.5584 9.60254 25.3283 10.2324 25.8042C10.8763 26.2661 11.6462 26.4971 12.542 26.4971C13.4238 26.4971 14.1727 26.2661 14.7886 25.8042C15.4185 25.3283 15.8944 24.5584 16.2163 23.4946C16.5522 22.4168 16.7202 20.9681 16.7202 19.1484V12.1567Z" fill="black"/>
<path d="M48.8301 18.3296C48.8301 21.395 48.3962 23.8936 47.5283 25.8252C46.6745 27.7428 45.4707 29.1566 43.917 30.0664C42.3773 30.9622 40.5856 31.4102 38.542 31.4102C36.4844 31.4102 34.6717 30.9622 33.104 30.0664C31.5503 29.1566 30.3395 27.7428 29.4717 25.8252C28.6038 23.8936 28.1699 21.395 28.1699 18.3296V13.0176C28.1699 9.95215 28.5968 7.46761 29.4507 5.56396C30.3185 3.64632 31.5293 2.23958 33.083 1.34375C34.6367 0.447917 36.4424 0 38.5 0C40.5436 0 42.3423 0.447917 43.896 1.34375C45.4497 2.23958 46.6605 3.64632 47.5283 5.56396C48.3962 7.46761 48.8301 9.95215 48.8301 13.0176V18.3296ZM42.7202 12.1567C42.7202 10.3651 42.5522 8.94434 42.2163 7.89453C41.8804 6.83073 41.3975 6.07487 40.7676 5.62695C40.1377 5.16504 39.3818 4.93408 38.5 4.93408C37.6042 4.93408 36.8413 5.16504 36.2114 5.62695C35.5815 6.07487 35.0986 6.83073 34.7627 7.89453C34.4408 8.94434 34.2798 10.3651 34.2798 12.1567V19.1484C34.2798 20.9681 34.4478 22.4168 34.7837 23.4946C35.1196 24.5584 35.6025 25.3283 36.2324 25.8042C36.8763 26.2661 37.6462 26.4971 38.542 26.4971C39.4238 26.4971 40.1727 26.2661 40.7886 25.8042C41.4185 25.3283 41.8944 24.5584 42.2163 23.4946C42.5522 22.4168 42.7202 20.9681 42.7202 19.1484V12.1567Z" fill="black"/>
<path d="M64.521 44.4102C62.5614 44.4102 60.7977 44.0812 59.23 43.4233C57.6623 42.7515 56.4235 41.7646 55.5137 40.4629C54.6038 39.1471 54.1489 37.5234 54.1489 35.5918C54.1489 33.8701 54.5968 32.3724 55.4927 31.0986C56.4025 29.8109 57.6343 28.8241 59.188 28.1382C60.7417 27.4383 62.5054 27.0884 64.479 27.0884C66.4666 27.0884 68.2373 27.4383 69.791 28.1382C71.3587 28.8241 72.5905 29.8109 73.4863 31.0986C74.3822 32.3724 74.8301 33.8701 74.8301 35.5918C74.8301 37.5234 74.3752 39.1471 73.4653 40.4629C72.5695 41.7646 71.3447 42.7515 69.791 43.4233C68.2513 44.0812 66.4946 44.4102 64.521 44.4102ZM64.521 39.4971C65.3888 39.4971 66.1307 39.3221 66.7466 38.9722C67.3765 38.6222 67.8594 38.1253 68.1953 37.4814C68.5312 36.8236 68.6992 36.0467 68.6992 35.1509C68.6992 34.241 68.5243 33.4642 68.1743 32.8203C67.8244 32.1624 67.3345 31.6585 66.7046 31.3086C66.0747 30.9587 65.3328 30.7837 64.479 30.7837C63.6392 30.7837 62.9043 30.9587 62.2744 31.3086C61.6445 31.6585 61.1546 32.1624 60.8047 32.8203C60.4548 33.4642 60.2798 34.241 60.2798 35.1509C60.2798 36.0467 60.4548 36.8236 60.8047 37.4814C61.1546 38.1253 61.6445 38.6222 62.2744 38.9722C62.9183 39.3221 63.6672 39.4971 64.521 39.4971ZM64.521 29.5029C62.6453 29.5029 60.9727 29.167 59.5029 28.4951C58.0332 27.8092 56.8784 26.8714 56.0386 25.6816C55.2127 24.4779 54.7998 23.0991 54.7998 21.5454C54.7998 19.6978 55.2127 18.137 56.0386 16.8633C56.8784 15.5895 58.0262 14.6237 59.4819 13.9658C60.9517 13.3079 62.6174 12.979 64.479 12.979C66.3826 12.979 68.0623 13.3079 69.5181 13.9658C70.9738 14.6237 72.1146 15.5895 72.9404 16.8633C73.7663 18.137 74.1792 19.6978 74.1792 21.5454C74.1792 23.0991 73.7663 24.4779 72.9404 25.6816C72.1146 26.8714 70.9738 27.8092 69.5181 28.4951C68.0763 29.167 66.4106 29.5029 64.521 29.5029ZM64.521 25.8706C65.2909 25.8706 65.9347 25.7026 66.4526 25.3667C66.9845 25.0168 67.3835 24.5409 67.6494 23.939C67.9294 23.3371 68.0693 22.6372 68.0693 21.8394C68.0693 21.0415 67.9224 20.3556 67.6284 19.7817C67.3485 19.1938 66.9425 18.7319 66.4106 18.396C65.8787 18.0601 65.2349 17.8921 64.479 17.8921C63.7371 17.8921 63.1003 18.0531 62.5684 18.375C62.0365 18.6969 61.6305 19.1519 61.3506 19.7397C61.0706 20.3276 60.9307 21.0275 60.9307 21.8394C60.9307 22.6372 61.0706 23.3371 61.3506 23.939C61.6305 24.5409 62.0365 25.0168 62.5684 25.3667C63.1143 25.7026 63.7651 25.8706 64.521 25.8706Z" fill="url(#paint0_linear_2073_134)"/>
<defs>
<linearGradient id="paint0_linear_2073_134" x1="64.5" y1="20.9902" x2="64.5" y2="40.9902" gradientUnits="userSpaceOnUse">
<stop offset="0.350962"/>
<stop offset="1" stop-color="#666666" stop-opacity="0"/>
</linearGradient>
</defs>
</svg>
