<svg width="139" height="43" viewBox="0 0 139 43" fill="none" xmlns="http://www.w3.org/2000/svg">
<rect width="43" height="43" rx="4" fill="#E6E3E3"/>
<rect x="48" width="43" height="43" rx="4" fill="#6F00FF"/>
<rect x="96" width="43" height="43" rx="4" fill="#E6E3E3"/>
<path d="M21.8519 28.037H22.8148V29H21.8519V28.037ZM22.8148 28.037H23.7778V29H22.8148V28.037ZM20.8889 28.037H21.8519V29H20.8889V28.037ZM20.8889 27.0741H21.8519V28.037H20.8889V27.0741ZM20.8889 26.1111H21.8519V27.0741H20.8889V26.1111ZM20.8889 25.1481H21.8519V26.1111H20.8889V25.1481ZM20.8889 24.1852H21.8519V25.1481H20.8889V24.1852ZM20.8889 23.2222H21.8519V24.1852H20.8889V23.2222ZM21.8519 22.2593H22.8148V23.2222H21.8519V22.2593ZM21.8519 21.2963H22.8148V22.2593H21.8519V21.2963ZM21.8519 20.3333H22.8148V21.2963H21.8519V20.3333ZM21.8519 19.3704H22.8148V20.3333H21.8519V19.3704ZM21.8519 18.4074H22.8148V19.3704H21.8519V18.4074ZM21.8519 17.4444H22.8148V18.4074H21.8519V17.4444ZM21.8519 16.4815H22.8148V17.4444H21.8519V16.4815ZM21.8519 15.5185H22.8148V16.4815H21.8519V15.5185ZM20.8889 15.5185H21.8519V16.4815H20.8889V15.5185ZM20.8889 14.5556H21.8519V15.5185H20.8889V14.5556ZM20.8889 16.4815H21.8519V17.4444H20.8889V16.4815ZM20.8889 17.4444H21.8519V18.4074H20.8889V17.4444ZM20.8889 18.4074H21.8519V19.3704H20.8889V18.4074ZM20.8889 19.3704H21.8519V20.3333H20.8889V19.3704ZM20.8889 20.3333H21.8519V21.2963H20.8889V20.3333ZM20.8889 21.2963H21.8519V22.2593H20.8889V21.2963ZM20.8889 22.2593H21.8519V23.2222H20.8889V22.2593ZM21.8519 14.5556H22.8148V15.5185H21.8519V14.5556ZM22.8148 14.5556H23.7778V15.5185H22.8148V14.5556ZM22.8148 15.5185H23.7778V16.4815H22.8148V15.5185ZM22.8148 16.4815H23.7778V17.4444H22.8148V16.4815ZM22.8148 17.4444H23.7778V18.4074H22.8148V17.4444ZM22.8148 18.4074H23.7778V19.3704H22.8148V18.4074ZM22.8148 19.3704H23.7778V20.3333H22.8148V19.3704ZM22.8148 20.3333H23.7778V21.2963H22.8148V20.3333ZM22.8148 21.2963H23.7778V22.2593H22.8148V21.2963ZM22.8148 22.2593H23.7778V23.2222H22.8148V22.2593ZM22.8148 23.2222H23.7778V24.1852H22.8148V23.2222ZM22.8148 24.1852H23.7778V25.1481H22.8148V24.1852ZM22.8148 25.1481H23.7778V26.1111H22.8148V25.1481ZM22.8148 26.1111H23.7778V27.0741H22.8148V26.1111ZM22.8148 27.0741H23.7778V28.037H22.8148V27.0741ZM21.8519 27.0741H22.8148V28.037H21.8519V27.0741ZM21.8519 26.1111H22.8148V27.0741H21.8519V26.1111ZM21.8519 25.1481H22.8148V26.1111H21.8519V25.1481ZM21.8519 24.1852H22.8148V25.1481H21.8519V24.1852ZM21.8519 23.2222H22.8148V24.1852H21.8519V23.2222ZM19.9259 14.5556H20.8889V15.5185H19.9259V14.5556ZM18.963 14.5556H19.9259V15.5185H18.963V14.5556ZM18.963 15.5185H19.9259V16.4815H18.963V15.5185ZM18.963 16.4815H19.9259V17.4444H18.963V16.4815ZM19.9259 16.4815H20.8889V17.4444H19.9259V16.4815ZM19.9259 15.5185H20.8889V16.4815H19.9259V15.5185Z" fill="#525252"/>
<path d="M64.963 18.4074H65.9259V19.3704H64.963V18.4074ZM64.963 17.4444H65.9259V18.4074H64.963V17.4444ZM64.963 16.4815H65.9259V17.4444H64.963V16.4815ZM65.9259 16.4815H66.8889V17.4444H65.9259V16.4815ZM65.9259 17.4444H66.8889V18.4074H65.9259V17.4444ZM66.8889 17.4444H67.8519V18.4074H66.8889V17.4444ZM66.8889 18.4074H67.8519V19.3704H66.8889V18.4074ZM65.9259 18.4074H66.8889V19.3704H65.9259V18.4074ZM66.8889 16.4815H67.8519V17.4444H66.8889V16.4815ZM67.8519 17.4444H68.8148V18.4074H67.8519V17.4444ZM66.8889 15.5185H67.8519V16.4815H66.8889V15.5185ZM65.9259 15.5185H66.8889V16.4815H65.9259V15.5185ZM66.8889 14.5556H67.8519V15.5185H66.8889V14.5556ZM67.8519 14.5556H68.8148V15.5185H67.8519V14.5556ZM68.8148 14.5556H69.7778V15.5185H68.8148V14.5556ZM69.7778 14.5556H70.7407V15.5185H69.7778V14.5556ZM70.7407 14.5556H71.7037V15.5185H70.7407V14.5556ZM71.7037 14.5556H72.6667V15.5185H71.7037V14.5556ZM71.7037 15.5185H72.6667V16.4815H71.7037V15.5185ZM72.6667 15.5185H73.6296V16.4815H72.6667V15.5185ZM70.7407 15.5185H71.7037V16.4815H70.7407V15.5185ZM69.7778 15.5185H70.7407V16.4815H69.7778V15.5185ZM68.8148 15.5185H69.7778V16.4815H68.8148V15.5185ZM67.8519 15.5185H68.8148V16.4815H67.8519V15.5185ZM67.8519 16.4815H68.8148V17.4444H67.8519V16.4815ZM68.8148 16.4815H69.7778V17.4444H68.8148V16.4815ZM69.7778 16.4815H70.7407V17.4444H69.7778V16.4815ZM70.7407 16.4815H71.7037V17.4444H70.7407V16.4815ZM71.7037 16.4815H72.6667V17.4444H71.7037V16.4815ZM72.6667 16.4815H73.6296V17.4444H72.6667V16.4815ZM72.6667 17.4444H73.6296V18.4074H72.6667V17.4444ZM73.6296 17.4444H74.5926V18.4074H73.6296V17.4444ZM73.6296 16.4815H74.5926V17.4444H73.6296V16.4815ZM71.7037 17.4444H72.6667V18.4074H71.7037V17.4444ZM70.7407 17.4444H71.7037V18.4074H70.7407V17.4444ZM72.6667 18.4074H73.6296V19.3704H72.6667V18.4074ZM71.7037 18.4074H72.6667V19.3704H71.7037V18.4074ZM71.7037 19.3704H72.6667V20.3333H71.7037V19.3704ZM71.7037 20.3333H72.6667V21.2963H71.7037V20.3333ZM72.6667 20.3333H73.6296V21.2963H72.6667V20.3333ZM72.6667 19.3704H73.6296V20.3333H72.6667V19.3704ZM73.6296 19.3704H74.5926V20.3333H73.6296V19.3704ZM73.6296 18.4074H74.5926V19.3704H73.6296V18.4074ZM73.6296 20.3333H74.5926V21.2963H73.6296V20.3333ZM70.7407 20.3333H71.7037V21.2963H70.7407V20.3333ZM71.7037 21.2963H72.6667V22.2593H71.7037V21.2963ZM72.6667 21.2963H73.6296V22.2593H72.6667V21.2963ZM70.7407 21.2963H71.7037V22.2593H70.7407V21.2963ZM69.7778 21.2963H70.7407V22.2593H69.7778V21.2963ZM70.7407 22.2593H71.7037V23.2222H70.7407V22.2593ZM71.7037 22.2593H72.6667V23.2222H71.7037V22.2593ZM70.7407 23.2222H71.7037V24.1852H70.7407V23.2222ZM69.7778 23.2222H70.7407V24.1852H69.7778V23.2222ZM68.8148 23.2222H69.7778V24.1852H68.8148V23.2222ZM68.8148 24.1852H69.7778V25.1481H68.8148V24.1852ZM69.7778 24.1852H70.7407V25.1481H69.7778V24.1852ZM69.7778 22.2593H70.7407V23.2222H69.7778V22.2593ZM68.8148 22.2593H69.7778V23.2222H68.8148V22.2593ZM67.8519 23.2222H68.8148V24.1852H67.8519V23.2222ZM67.8519 24.1852H68.8148V25.1481H67.8519V24.1852ZM66.8889 24.1852H67.8519V25.1481H66.8889V24.1852ZM66.8889 25.1481H67.8519V26.1111H66.8889V25.1481ZM67.8519 25.1481H68.8148V26.1111H67.8519V25.1481ZM68.8148 25.1481H69.7778V26.1111H68.8148V25.1481ZM65.9259 25.1481H66.8889V26.1111H65.9259V25.1481ZM65.9259 26.1111H66.8889V27.0741H65.9259V26.1111ZM64.963 26.1111H65.9259V27.0741H64.963V26.1111ZM64.963 27.0741H65.9259V28.037H64.963V27.0741ZM65.9259 27.0741H66.8889V28.037H65.9259V27.0741ZM65.9259 28.037H66.8889V29H65.9259V28.037ZM66.8889 28.037H67.8519V29H66.8889V28.037ZM67.8519 28.037H68.8148V29H67.8519V28.037ZM68.8148 28.037H69.7778V29H68.8148V28.037ZM64.963 28.037H65.9259V29H64.963V28.037ZM73.6296 26.1111H74.5926V27.0741H73.6296V26.1111ZM72.6667 26.1111H73.6296V27.0741H72.6667V26.1111ZM71.7037 26.1111H72.6667V27.0741H71.7037V26.1111ZM70.7407 26.1111H71.7037V27.0741H70.7407V26.1111ZM68.8148 26.1111H69.7778V27.0741H68.8148V26.1111ZM67.8519 26.1111H68.8148V27.0741H67.8519V26.1111ZM66.8889 26.1111H67.8519V27.0741H66.8889V26.1111ZM66.8889 27.0741H67.8519V28.037H66.8889V27.0741ZM67.8519 27.0741H68.8148V28.037H67.8519V27.0741ZM68.8148 27.0741H69.7778V28.037H68.8148V27.0741ZM69.7778 27.0741H70.7407V28.037H69.7778V27.0741ZM70.7407 27.0741H71.7037V28.037H70.7407V27.0741ZM69.7778 26.1111H70.7407V27.0741H69.7778V26.1111ZM73.6296 27.0741H74.5926V28.037H73.6296V27.0741ZM72.6667 27.0741H73.6296V28.037H72.6667V27.0741ZM71.7037 27.0741H72.6667V28.037H71.7037V27.0741ZM69.7778 28.037H70.7407V29H69.7778V28.037ZM70.7407 28.037H71.7037V29H70.7407V28.037ZM71.7037 28.037H72.6667V29H71.7037V28.037ZM72.6667 28.037H73.6296V29H72.6667V28.037ZM73.6296 28.037H74.5926V29H73.6296V28.037Z" fill="white"/>
<path d="M112.963 16.4815H113.926V17.4444H112.963V16.4815ZM112.963 17.4444H113.926V18.4074H112.963V17.4444ZM112.963 18.4074H113.926V19.3704H112.963V18.4074ZM113.926 18.4074H114.889V19.3704H113.926V18.4074ZM114.889 18.4074H115.852V19.3704H114.889V18.4074ZM114.889 17.4444H115.852V18.4074H114.889V17.4444ZM114.889 16.4815H115.852V17.4444H114.889V16.4815ZM113.926 16.4815H114.889V17.4444H113.926V16.4815ZM113.926 17.4444H114.889V18.4074H113.926V17.4444ZM113.926 15.5185H114.889V16.4815H113.926V15.5185ZM114.889 15.5185H115.852V16.4815H114.889V15.5185ZM115.852 16.4815H116.815V17.4444H115.852V16.4815ZM115.852 17.4444H116.815V18.4074H115.852V17.4444ZM115.852 15.5185H116.815V16.4815H115.852V15.5185ZM115.852 14.5556H116.815V15.5185H115.852V14.5556ZM114.889 14.5556H115.852V15.5185H114.889V14.5556ZM116.815 14.5556H117.778V15.5185H116.815V14.5556ZM117.778 14.5556H118.741V15.5185H117.778V14.5556ZM118.741 14.5556H119.704V15.5185H118.741V14.5556ZM119.704 14.5556H120.667V15.5185H119.704V14.5556ZM119.704 15.5185H120.667V16.4815H119.704V15.5185ZM120.667 15.5185H121.63V16.4815H120.667V15.5185ZM120.667 16.4815H121.63V17.4444H120.667V16.4815ZM121.63 16.4815H122.593V17.4444H121.63V16.4815ZM121.63 17.4444H122.593V18.4074H121.63V17.4444ZM121.63 18.4074H122.593V19.3704H121.63V18.4074ZM121.63 19.3704H122.593V20.3333H121.63V19.3704ZM120.667 19.3704H121.63V20.3333H120.667V19.3704ZM119.704 19.3704H120.667V20.3333H119.704V19.3704ZM119.704 18.4074H120.667V19.3704H119.704V18.4074ZM120.667 18.4074H121.63V19.3704H120.667V18.4074ZM120.667 17.4444H121.63V18.4074H120.667V17.4444ZM119.704 17.4444H120.667V18.4074H119.704V17.4444ZM118.741 17.4444H119.704V18.4074H118.741V17.4444ZM119.704 16.4815H120.667V17.4444H119.704V16.4815ZM118.741 16.4815H119.704V17.4444H118.741V16.4815ZM117.778 16.4815H118.741V17.4444H117.778V16.4815ZM116.815 16.4815H117.778V17.4444H116.815V16.4815ZM116.815 15.5185H117.778V16.4815H116.815V15.5185ZM117.778 15.5185H118.741V16.4815H117.778V15.5185ZM118.741 15.5185H119.704V16.4815H118.741V15.5185ZM118.741 19.3704H119.704V20.3333H118.741V19.3704ZM118.741 20.3333H119.704V21.2963H118.741V20.3333ZM117.778 20.3333H118.741V21.2963H117.778V20.3333ZM116.815 20.3333H117.778V21.2963H116.815V20.3333ZM115.852 20.3333H116.815V21.2963H115.852V20.3333ZM115.852 21.2963H116.815V22.2593H115.852V21.2963ZM116.815 21.2963H117.778V22.2593H116.815V21.2963ZM117.778 21.2963H118.741V22.2593H117.778V21.2963ZM118.741 21.2963H119.704V22.2593H118.741V21.2963ZM119.704 21.2963H120.667V22.2593H119.704V21.2963ZM119.704 20.3333H120.667V21.2963H119.704V20.3333ZM120.667 20.3333H121.63V21.2963H120.667V20.3333ZM120.667 21.2963H121.63V22.2593H120.667V21.2963ZM119.704 22.2593H120.667V23.2222H119.704V22.2593ZM118.741 22.2593H119.704V23.2222H118.741V22.2593ZM120.667 22.2593H121.63V23.2222H120.667V22.2593ZM120.667 23.2222H121.63V24.1852H120.667V23.2222ZM121.63 23.2222H122.593V24.1852H121.63V23.2222ZM121.63 22.2593H122.593V23.2222H121.63V22.2593ZM121.63 24.1852H122.593V25.1481H121.63V24.1852ZM121.63 25.1481H122.593V26.1111H121.63V25.1481ZM121.63 26.1111H122.593V27.0741H121.63V26.1111ZM120.667 26.1111H121.63V27.0741H120.667V26.1111ZM120.667 25.1481H121.63V26.1111H120.667V25.1481ZM120.667 24.1852H121.63V25.1481H120.667V24.1852ZM119.704 23.2222H120.667V24.1852H119.704V23.2222ZM119.704 24.1852H120.667V25.1481H119.704V24.1852ZM119.704 25.1481H120.667V26.1111H119.704V25.1481ZM119.704 26.1111H120.667V27.0741H119.704V26.1111ZM118.741 26.1111H119.704V27.0741H118.741V26.1111ZM118.741 25.1481H119.704V26.1111H118.741V25.1481ZM119.704 27.0741H120.667V28.037H119.704V27.0741ZM120.667 27.0741H121.63V28.037H120.667V27.0741ZM119.704 28.037H120.667V29H119.704V28.037ZM118.741 28.037H119.704V29H118.741V28.037ZM117.778 28.037H118.741V29H117.778V28.037ZM116.815 28.037H117.778V29H116.815V28.037ZM115.852 28.037H116.815V29H115.852V28.037ZM114.889 28.037H115.852V29H114.889V28.037ZM114.889 27.0741H115.852V28.037H114.889V27.0741ZM113.926 27.0741H114.889V28.037H113.926V27.0741ZM113.926 26.1111H114.889V27.0741H113.926V26.1111ZM112.963 26.1111H113.926V27.0741H112.963V26.1111ZM112.963 25.1481H113.926V26.1111H112.963V25.1481ZM112.963 24.1852H113.926V25.1481H112.963V24.1852ZM113.926 24.1852H114.889V25.1481H113.926V24.1852ZM114.889 24.1852H115.852V25.1481H114.889V24.1852ZM114.889 25.1481H115.852V26.1111H114.889V25.1481ZM113.926 25.1481H114.889V26.1111H113.926V25.1481ZM115.852 26.1111H116.815V27.0741H115.852V26.1111ZM115.852 25.1481H116.815V26.1111H115.852V25.1481ZM114.889 26.1111H115.852V27.0741H114.889V26.1111ZM116.815 26.1111H117.778V27.0741H116.815V26.1111ZM117.778 26.1111H118.741V27.0741H117.778V26.1111ZM118.741 27.0741H119.704V28.037H118.741V27.0741ZM117.778 27.0741H118.741V28.037H117.778V27.0741ZM116.815 27.0741H117.778V28.037H116.815V27.0741ZM115.852 27.0741H116.815V28.037H115.852V27.0741Z" fill="#525252"/>
</svg>
