<svg width="65" height="74" viewBox="0 0 65 74" fill="none" xmlns="http://www.w3.org/2000/svg">
<path d="M13.2347 4.6818C13.9218 3.00377 16.3083 3.03292 16.9543 4.72723L28.9872 36.2875C29.1622 36.7464 29.1622 37.2536 28.9872 37.7125L16.9543 69.2728C16.3083 70.9671 13.9218 70.9962 13.2347 69.3182L0.310381 37.7579C0.111476 37.2722 0.111477 36.7278 0.310382 36.2421L13.2347 4.6818Z" fill="#6F00FF"/>
<path d="M31.6572 4.68228C32.3443 3.00428 34.7308 3.033 35.3769 4.7272L47.4091 36.2878C47.5841 36.7466 47.5841 37.2537 47.4091 37.7126L35.3769 69.2731C34.7309 70.9674 32.3443 70.9961 31.6572 69.318L28.5234 61.6667L37.6562 37.7126C37.8311 37.2537 37.8311 36.7466 37.6562 36.2878L28.5234 12.3327L31.6572 4.68228Z" fill="#D9D9D9"/>
<path d="M48.6476 4.68228C49.3347 3.00428 51.7213 3.033 52.3673 4.7272L64.3995 36.2878C64.5745 36.7466 64.5745 37.2537 64.3995 37.7126L52.3673 69.2731C51.7213 70.9674 49.3348 70.9961 48.6476 69.318L45.5138 61.6667L54.6466 37.7126C54.8215 37.2537 54.8216 36.7466 54.6466 36.2878L45.5138 12.3327L48.6476 4.68228Z" fill="#D9D9D9"/>
</svg>
