<svg width="96" height="54" viewBox="0 0 96 54" fill="none" xmlns="http://www.w3.org/2000/svg">
<path d="M86.8663 23.548C86.8663 24.4373 86.9437 25.114 87.0983 25.578C87.2917 26.0033 87.601 26.332 88.0263 26.564C88.4517 26.796 89.1477 27.0473 90.1143 27.318L89.7083 28.362H79.6163L79.1523 27.782L79.6163 27.086C80.2737 26.1967 80.7183 25.3073 80.9503 24.418C81.221 23.49 81.337 22.272 81.2983 20.764V5.162C81.2983 4.19533 81.2017 3.55733 81.0083 3.248C80.8537 2.9 80.525 2.726 80.0223 2.726H79.3843C78.0697 2.726 77.0837 3.132 76.4263 3.944C75.769 4.71733 75.0923 6.12867 74.3963 8.178L73.2363 7.772V0.522L73.8163 0L74.5123 0.522C75.247 1.02467 76.6777 1.276 78.8043 1.276H89.4183C91.545 1.276 92.9757 1.02467 93.7103 0.522L94.4063 0L95.0443 0.522V7.772L93.8263 8.178C93.0917 6.05133 92.3957 4.62067 91.7383 3.886C91.1197 3.11267 90.1723 2.726 88.8963 2.726H88.1423C87.6397 2.726 87.2917 2.9 87.0983 3.248C86.9437 3.55733 86.8663 4.19533 86.8663 5.162V23.548Z" fill="black"/>
<path opacity="0.7" d="M68.9869 29.012C70.1083 30.5973 71.249 31.854 72.409 32.782L71.945 33.362H60.461L60.171 32.318L61.041 32.086C62.1236 31.7767 62.665 31.2933 62.665 30.636C62.665 29.9787 62.2976 29.1087 61.563 28.026L58.025 22.632L54.1969 28.258C53.8876 28.722 53.675 29.1087 53.559 29.418C53.443 29.6887 53.385 30.0173 53.385 30.404C53.385 30.8293 53.559 31.39 53.907 32.086L54.1969 32.782L53.5009 33.362H47.295L46.9469 32.318L47.817 32.086C48.397 31.9313 48.8803 31.6993 49.267 31.39C49.6536 31.0807 50.0596 30.636 50.485 30.056L56.865 20.892L50.311 10.916C49.151 9.21467 47.9716 7.88067 46.7729 6.914L47.2369 6.276H58.721L59.011 7.32L58.1409 7.552C57.0583 7.82267 56.517 8.306 56.517 9.002C56.517 9.62067 56.8843 10.51 57.6189 11.67L60.867 16.658L64.4629 11.38C64.7723 10.916 64.9849 10.5487 65.1009 10.278C65.2169 9.96867 65.275 9.64 65.275 9.292C65.275 8.86667 65.1203 8.28667 64.811 7.552L64.4629 6.914L65.159 6.276H71.365L71.7129 7.32L70.843 7.552C70.263 7.70667 69.7796 7.93867 69.393 8.248C69.0063 8.55733 68.6003 9.002 68.175 9.582L62.027 18.398L68.9869 29.012Z" fill="black"/>
<path opacity="0.5" d="M27.2219 24.874C27.2219 23.3273 27.1059 22.1093 26.8739 21.22C26.6419 20.3307 26.1972 19.4413 25.5399 18.552L25.0759 17.914L25.5399 17.276H38.3579C40.4845 17.276 41.9152 17.0247 42.6499 16.522L43.3459 16L43.9259 16.522V23.772L42.7659 24.178C42.0699 22.09 41.3739 20.6593 40.6779 19.886C40.0205 19.1127 39.0732 18.726 37.8359 18.726H35.2259C34.2205 18.726 33.5632 18.9193 33.2539 19.306C32.9445 19.654 32.7899 20.4273 32.7899 21.626V29.862H36.9659C38.1259 29.862 38.9765 29.746 39.5179 29.514C40.0979 29.282 40.5232 28.818 40.7939 28.122L41.0839 27.31L41.8379 27.774V34.27L40.5619 34.734L40.3299 33.458C40.1752 32.646 39.7499 32.0853 39.0539 31.776C38.3579 31.4667 37.2365 31.312 35.6899 31.312H32.7899V40.07C32.7899 41.23 32.9639 42.0033 33.3119 42.39C33.6599 42.738 34.4332 42.912 35.6319 42.912H38.4739C39.6339 42.912 40.5425 42.506 41.1999 41.694C41.8959 40.882 42.5532 39.4707 43.1719 37.46L44.3899 37.866V44.826L43.7519 45.348C43.2105 44.9613 42.5919 44.6907 41.8959 44.536C41.1999 44.42 40.2332 44.362 38.9959 44.362H24.4379L24.0319 43.318C24.9985 43.0473 25.6945 42.796 26.1199 42.564C26.5452 42.2933 26.8352 41.9453 26.9899 41.52C27.1445 41.0947 27.2219 40.4373 27.2219 39.548V24.874Z" fill="black"/>
<path opacity="0.3" d="M13.63 48.548C13.63 49.4373 13.7073 50.114 13.862 50.578C14.0553 51.0033 14.3647 51.332 14.79 51.564C15.2153 51.796 15.9113 52.0473 16.878 52.318L16.472 53.362H6.38L5.916 52.782L6.38 52.086C7.03733 51.1967 7.482 50.3073 7.714 49.418C7.98467 48.49 8.10067 47.272 8.062 45.764V30.162C8.062 29.1953 7.96533 28.5573 7.772 28.248C7.61733 27.9 7.28867 27.726 6.786 27.726H6.148C4.83333 27.726 3.84733 28.132 3.19 28.944C2.53267 29.7173 1.856 31.1287 1.16 33.178L0 32.772V25.522L0.58 25L1.276 25.522C2.01067 26.0247 3.44133 26.276 5.568 26.276H16.182C18.3087 26.276 19.7393 26.0247 20.474 25.522L21.17 25L21.808 25.522V32.772L20.59 33.178C19.8553 31.0513 19.1593 29.6207 18.502 28.886C17.8833 28.1127 16.936 27.726 15.66 27.726H14.906C14.4033 27.726 14.0553 27.9 13.862 28.248C13.7073 28.5573 13.63 29.1953 13.63 30.162V48.548Z" fill="black"/>
</svg>
