<svg width="15" height="14" viewBox="0 0 15 14" fill="none" xmlns="http://www.w3.org/2000/svg">
<path d="M7.25293 0.285435C7.63383 -0.0951553 8.25092 -0.0951324 8.63184 0.285435L14.1514 5.80399C14.1759 5.82857 14.1983 5.85471 14.2197 5.88114L15 6.66141L14.2197 7.44071C14.1982 7.46735 14.1761 7.49406 14.1514 7.51883L8.63184 13.0374C8.25088 13.4182 7.63388 13.4182 7.25293 13.0374C6.87194 12.6564 6.87194 12.0385 7.25293 11.6575L10.8799 8.03055H1C0.447844 8.03055 0.000208793 7.58266 0 7.03055V6.91336C0 6.36108 0.447715 5.91336 1 5.91336H11.501L7.25293 1.66532C6.87194 1.28433 6.87194 0.666422 7.25293 0.285435Z" fill="white"/>
</svg>
