<svg width="23" height="14" viewBox="0 0 23 14" fill="none" xmlns="http://www.w3.org/2000/svg">
<mask id="path-1-outside-1_2001_4" maskUnits="userSpaceOnUse" x="-0.362977" y="-0.701127" width="23" height="15" fill="black">
<rect fill="white" x="-0.362977" y="-0.701127" width="23" height="15"/>
<path d="M11.237 9.93887L19.805 1.37087L20.981 2.40687L11.237 12.2069L1.46502 2.54687L2.64102 1.51087L11.237 9.93887Z"/>
</mask>
<path d="M11.237 9.93887L19.805 1.37087L20.981 2.40687L11.237 12.2069L1.46502 2.54687L2.64102 1.51087L11.237 9.93887Z" fill="black"/>
<path d="M11.237 9.93887L10.5369 10.6529L11.244 11.3461L11.9441 10.646L11.237 9.93887ZM19.805 1.37087L20.4661 0.620513L19.7617 -2.87445e-06L19.0979 0.663765L19.805 1.37087ZM20.981 2.40687L21.6902 3.11195L22.4391 2.35869L21.6421 1.65651L20.981 2.40687ZM11.237 12.2069L10.534 12.918L11.2431 13.619L11.9462 12.912L11.237 12.2069ZM1.46502 2.54687L0.803991 1.79652L9.06492e-06 2.50479L0.762003 3.25804L1.46502 2.54687ZM2.64102 1.51087L3.34112 0.796822L2.67743 0.146105L1.97999 0.760514L2.64102 1.51087ZM11.237 9.93887L11.9441 10.646L20.5121 2.07798L19.805 1.37087L19.0979 0.663765L10.5299 9.23177L11.237 9.93887ZM19.805 1.37087L19.144 2.12123L20.32 3.15723L20.981 2.40687L21.6421 1.65651L20.4661 0.620513L19.805 1.37087ZM20.981 2.40687L20.2719 1.70179L10.5279 11.5018L11.237 12.2069L11.9462 12.912L21.6902 3.11195L20.981 2.40687ZM11.237 12.2069L11.94 11.4957L2.16804 1.8357L1.46502 2.54687L0.762003 3.25804L10.534 12.918L11.237 12.2069ZM1.46502 2.54687L2.12605 3.29723L3.30205 2.26123L2.64102 1.51087L1.97999 0.760514L0.803991 1.79652L1.46502 2.54687ZM2.64102 1.51087L1.94093 2.22492L10.5369 10.6529L11.237 9.93887L11.9371 9.22482L3.34112 0.796822L2.64102 1.51087Z" fill="black" mask="url(#path-1-outside-1_2001_4)"/>
</svg>
