<svg width="101" height="101" viewBox="0 0 101 101" fill="none" xmlns="http://www.w3.org/2000/svg">
<mask id="mask0_2044_48" style="mask-type:alpha" maskUnits="userSpaceOnUse" x="0" y="0" width="101" height="101">
<rect width="101" height="101" fill="#D9D9D9"/>
</mask>
<g mask="url(#mask0_2044_48)">
<path d="M46 0.136719C47.2463 0.045952 48.505 2.31269e-06 49.7744 0C78.0655 0 101 22.9345 101 51.2256C101 52.4951 100.953 53.7537 100.862 55H101V0H46V0.136719Z" fill="#1D79C8"/>
<path d="M46 51.1367C47.2463 51.046 48.505 51 49.7744 51C78.0655 51 101 73.9345 101 102.226C101 103.495 100.953 104.754 100.862 106H101V51H46V51.1367Z" fill="#1D79C8"/>
<path d="M-4 0.136719C-2.75371 0.045952 -1.49503 2.31269e-06 -0.225586 0C28.0655 0 51 22.9345 51 51.2256C51 52.4951 50.9531 53.7537 50.8623 55H51V0H-4V0.136719Z" fill="#1D79C8"/>
<path d="M-4 51.1367C-2.75371 51.046 -1.49503 51 -0.225586 51C28.0655 51 51 73.9345 51 102.226C51 103.495 50.9531 104.754 50.8623 106H51V51H-4V51.1367Z" fill="#1D79C8"/>
</g>
</svg>
