<svg width="101" height="101" viewBox="0 0 101 101" fill="none" xmlns="http://www.w3.org/2000/svg">
<path d="M71.5107 5.26953C71.1768 6.7933 71 8.37601 71 10C71 14.987 72.6604 19.5855 75.457 23.2754L16 53.5L14 48.5L22 44.5C20.6667 40.5 20.8 31.1 32 25.5C42.6207 20.1897 61.873 10.2615 71.5107 5.26953Z" fill="#136ABF"/>
<path d="M95.4268 29.1074C94.1526 29.337 92.8403 29.457 91.5 29.457C86.6029 29.457 82.0802 27.8562 78.4248 25.1504L77.5 25L47 85L52 87L56 79C60 80.3333 69.4 80.2 75 69C80.3813 58.2374 90.5034 38.6102 95.4268 29.1074Z" fill="#136ABF"/>
<path d="M89.5 0C95.8513 0 101 5.14873 101 11.5C101 17.8513 95.8513 23 89.5 23C83.1487 23 78 17.8513 78 11.5C78 5.14873 83.1487 0 89.5 0ZM89.5 7C87.0147 7 85 9.01472 85 11.5C85 13.9853 87.0147 16 89.5 16C91.9853 16 94 13.9853 94 11.5C94 9.01472 91.9853 7 89.5 7Z" fill="#136ABF"/>
<rect x="35.9497" y="12" width="74" height="7" transform="rotate(45 35.9497 12)" fill="#136ABF"/>
<rect x="51" y="44.625" width="17.8544" height="7" transform="rotate(-45 51 44.625)" fill="#136ABF"/>
<path d="M7.03613 37C7.01241 37.6637 7 38.3305 7 39C7 69.3757 31.6243 94 62 94C62.6695 94 63.3363 93.9876 64 93.9639V100.966C63.3359 100.987 62.6692 101 62 101C27.7583 101 0 73.2417 0 39C0 38.3308 0.0121568 37.6641 0.0332031 37H7.03613Z" fill="#136ABF"/>
</svg>
